<svg class="bob" font-family="arial" font-size="14" height="592" width="928" xmlns="http://www.w3.org/2000/svg">
<defs>
<marker id="triangle" markerHeight="8" markerWidth="8" orient="auto" refX="4" refY="2" viewBox="0 0 8 4">
<polygon class="fg_fill" points="0,0 0,4 8,2 0,0"/>
</marker>
<marker id="clear_triangle" markerHeight="10" markerWidth="10" orient="auto" refX="1" refY="7" viewBox="0 0 20 14">
<polygon class="bg_fill" points="2,2 2,12 18,7 2,2"/>
</marker>
<marker id="circle" markerHeight="5" markerWidth="5" orient="auto" refX="10" refY="10" viewBox="0 0 20 20">
<circle class="fg_fill" cx="10" cy="10" r="8"/>
</marker>
<marker id="square" markerHeight="5" markerWidth="5" orient="auto" refX="10" refY="10" viewBox="0 0 20 20">
<rect class="fg_fill" height="20" width="20" x="0" y="0"/>
</marker>
<marker id="open_circle" markerHeight="10" markerWidth="10" orient="auto" refX="10" refY="10" viewBox="0 0 20 20">
<circle class="bg_fill" cx="10" cy="10" r="4"/>
</marker>
<marker id="big_open_circle" markerHeight="20" markerWidth="20" orient="auto" refX="20" refY="20" viewBox="0 0 40 40">
<circle class="bg_fill" cx="20" cy="20" r="6"/>
</marker>
</defs>
<style type="text/css">

rect.backdrop {
    fill: white;
}
text{
    fill: black;
}

circle {
    fill: none;
    stroke: black;
    stroke-width: 2;
}

line {
    stroke: black;
    stroke-width: 2;
    stroke-opacity: 1;
    fill-opacity: 1;
    stroke-linecap: round;
    stroke-linejoin: miter;
}

path {
    fill: none;
    stroke: black;
    stroke-width: 2;
    stroke-opacity: 1;
    fill-opacity: 1;
    stroke-linecap: round;
    stroke-linejoin: miter;
}

line.dashed {
    stroke-dasharray: 5;
}

.fg_fill {
    fill: black;
}


.bg_fill {
    fill: white;
    stroke: black;
    stroke-width: 2;
}

tspan.head{
    fill: none;
    stroke: none;
}
    
</style>
<rect class="backdrop" height="592" width="928" x="0" y="0"/>
<g>
<line x1="4" x2="4" y1="264" y2="392"/>
<line x1="4" x2="108" y1="264" y2="264"/>
<line x1="4" x2="108" y1="392" y2="392"/>
<line x1="108" x2="108" y1="264" y2="296"/>
<line x1="108" x2="108" y1="296" y2="328"/>
<line marker-end="url(#triangle)" x1="108" x2="220" y1="296" y2="296"/>
<line x1="108" x2="108" y1="328" y2="360"/>
<line marker-end="url(#triangle)" x1="108" x2="220" y1="328" y2="328"/>
<line x1="108" x2="108" y1="360" y2="392"/>
<line marker-end="url(#triangle)" x1="108" x2="220" y1="360" y2="360"/>
</g>
<g>
<line x1="204" x2="204" y1="200" y2="288"/>
<line x1="204" x2="924" y1="200" y2="200"/>
<line x1="924" x2="924" y1="200" y2="472"/>
</g>
<g>
<line x1="204" x2="204" y1="304" y2="320"/>
</g>
<g>
<line x1="204" x2="204" y1="336" y2="352"/>
</g>
<g>
<line x1="204" x2="204" y1="368" y2="472"/>
<line x1="204" x2="924" y1="472" y2="472"/>
</g>
<g>
<line x1="228" x2="228" y1="264" y2="296"/>
<line x1="228" x2="292" y1="264" y2="264"/>
<line x1="228" x2="224" y1="296" y2="296"/>
<line x1="228" x2="228" y1="296" y2="328"/>
<line x1="228" x2="224" y1="328" y2="328"/>
<line x1="228" x2="228" y1="328" y2="360"/>
<line x1="228" x2="224" y1="360" y2="360"/>
<line x1="228" x2="228" y1="360" y2="392"/>
<line x1="228" x2="292" y1="392" y2="392"/>
<line x1="292" x2="292" y1="264" y2="296"/>
<line x1="292" x2="292" y1="296" y2="392"/>
<line marker-end="url(#triangle)" x1="292" x2="308" y1="296" y2="296"/>
</g>
<g>
<line x1="268" x2="268" y1="56" y2="120"/>
<line x1="268" x2="380" y1="56" y2="56"/>
<line x1="268" x2="332" y1="120" y2="120"/>
<line x1="332" x2="380" y1="120" y2="120"/>
<line x1="380" x2="380" y1="56" y2="120"/>
</g>
<g>
<line x1="316" x2="316" y1="264" y2="296"/>
<line x1="316" x2="420" y1="264" y2="264"/>
<line x1="316" x2="312" y1="296" y2="296"/>
<line x1="316" x2="316" y1="296" y2="376"/>
<line x1="316" x2="340" y1="376" y2="376"/>
<line x1="340" x2="420" y1="376" y2="376"/>
<line x1="420" x2="420" y1="264" y2="296"/>
<line x1="420" x2="420" y1="296" y2="376"/>
<line marker-end="url(#triangle)" x1="420" x2="452" y1="296" y2="296"/>
</g>
<g>
<line marker-end="url(#triangle)" x1="332" x2="332" y1="144" y2="132"/>
<line x1="332" x2="332" y1="144" y2="168"/>
<line x1="332" x2="476" y1="168" y2="168"/>
<line x1="476" x2="476" y1="168" y2="192"/>
</g>
<g>
<line marker-end="url(#triangle)" x1="340" x2="340" y1="400" y2="388"/>
<line x1="340" x2="340" y1="400" y2="464"/>
</g>
<g>
<line x1="340" x2="340" y1="480" y2="552"/>
<line x1="340" x2="620" y1="552" y2="552"/>
<line x1="620" x2="620" y1="536" y2="552"/>
<line x1="620" x2="620" y1="552" y2="584"/>
<line x1="620" x2="700" y1="584" y2="584"/>
<line x1="700" x2="700" y1="520" y2="584"/>
</g>
<g>
<line x1="420" x2="420" y1="72" y2="136"/>
<line x1="420" x2="524" y1="72" y2="72"/>
<line x1="420" x2="500" y1="136" y2="136"/>
<line x1="500" x2="524" y1="136" y2="136"/>
<line x1="524" x2="524" y1="72" y2="136"/>
</g>
<g>
<line x1="460" x2="460" y1="264" y2="296"/>
<line x1="460" x2="476" y1="264" y2="264"/>
<line x1="460" x2="456" y1="296" y2="296"/>
<line x1="460" x2="460" y1="296" y2="328"/>
<line x1="460" x2="516" y1="328" y2="328"/>
<line x1="476" x2="476" y1="208" y2="264"/>
<line x1="476" x2="500" y1="264" y2="264"/>
<line x1="500" x2="500" y1="208" y2="264"/>
<line x1="500" x2="532" y1="264" y2="264"/>
<line x1="516" x2="564" y1="328" y2="328"/>
<line x1="532" x2="564" y1="264" y2="264"/>
<line x1="564" x2="564" y1="264" y2="296"/>
<line x1="564" x2="564" y1="296" y2="328"/>
<line marker-end="url(#triangle)" x1="564" x2="612" y1="296" y2="296"/>
</g>
<g>
<line marker-end="url(#triangle)" x1="500" x2="500" y1="160" y2="148"/>
<line x1="500" x2="500" y1="160" y2="192"/>
</g>
<g>
<line marker-end="url(#triangle)" x1="516" x2="516" y1="352" y2="340"/>
<line x1="516" x2="516" y1="352" y2="464"/>
</g>
<g>
<line x1="516" x2="516" y1="480" y2="536"/>
<line x1="516" x2="620" y1="536" y2="536"/>
<line x1="620" x2="620" y1="520" y2="536"/>
<line x1="620" x2="652" y1="520" y2="520"/>
<line x1="652" x2="700" y1="520" y2="520"/>
</g>
<g>
<line marker-end="url(#triangle)" x1="532" x2="532" y1="232" y2="252"/>
<line x1="532" x2="604" y1="232" y2="232"/>
<line x1="604" x2="604" y1="208" y2="232"/>
</g>
<g>
<line x1="588" x2="588" y1="8" y2="72"/>
<line x1="588" x2="692" y1="8" y2="8"/>
<line x1="588" x2="604" y1="72" y2="72"/>
<line x1="604" x2="604" y1="72" y2="192"/>
<line x1="604" x2="652" y1="72" y2="72"/>
<line x1="652" x2="692" y1="72" y2="72"/>
<line x1="692" x2="692" y1="8" y2="72"/>
</g>
<g>
<line x1="620" x2="620" y1="264" y2="296"/>
<line x1="620" x2="652" y1="264" y2="264"/>
<line x1="620" x2="616" y1="296" y2="296"/>
<line x1="620" x2="620" y1="296" y2="408"/>
<line x1="620" x2="772" y1="408" y2="408"/>
<line x1="652" x2="652" y1="208" y2="264"/>
<line x1="652" x2="772" y1="264" y2="264"/>
<line x1="772" x2="772" y1="264" y2="296"/>
<line x1="772" x2="772" y1="296" y2="408"/>
<line marker-end="url(#triangle)" x1="772" x2="820" y1="296" y2="296"/>
</g>
<g>
<line x1="636" x2="636" y1="312" y2="376"/>
<line x1="636" x2="756" y1="312" y2="312"/>
<line x1="636" x2="652" y1="376" y2="376"/>
<line x1="652" x2="652" y1="376" y2="400"/>
<line x1="652" x2="756" y1="376" y2="376"/>
<line x1="756" x2="756" y1="312" y2="376"/>
</g>
<g>
<line marker-end="url(#triangle)" x1="652" x2="652" y1="96" y2="84"/>
<line x1="652" x2="652" y1="96" y2="192"/>
</g>
<g>
<line x1="652" x2="652" y1="416" y2="464"/>
</g>
<g>
<line marker-end="url(#triangle)" x1="652" x2="652" y1="480" y2="508"/>
</g>
<g>
<line x1="828" x2="828" y1="264" y2="296"/>
<line x1="828" x2="908" y1="264" y2="264"/>
<line x1="828" x2="824" y1="296" y2="296"/>
<line x1="828" x2="828" y1="296" y2="328"/>
<line x1="828" x2="908" y1="328" y2="328"/>
<line x1="908" x2="908" y1="264" y2="328"/>
</g>
<g>
<text x="17" y="300">
Upstream
</text>
</g>
<g>
<text x="17" y="316">
Validators
</text>
</g>
<g>
<text x="137" y="380">
TVU
</text>
</g>
<g>
<text x="137" y="396">
Forwards
</text>
</g>
<g>
<text x="145" y="284">
Repair
</text>
</g>
<g>
<text x="153" y="316">
TVU
</text>
</g>
<g>
<text x="225" y="236">
TVU
</text>
</g>
<g>
<text x="241" y="316">
Shred
</text>
</g>
<g>
<text x="241" y="332">
Fetch
</text>
</g>
<g>
<text x="241" y="348">
Stage
</text>
</g>
<g>
<text x="273" y="76">
Child
</text>
</g>
<g>
<text x="273" y="92">
Validators
</text>
</g>
<g>
<text x="313" y="188">
shreds(forward=true)
</text>
</g>
<g>
<text x="329" y="300">
Shred
</text>
</g>
<g>
<text x="329" y="316">
Verify
</text>
</g>
<g>
<text x="329" y="332">
Leader
</text>
</g>
<g>
<text x="329" y="348">
Stage
</text>
</g>
<g>
<text x="385" y="332">
Sig
</text>
</g>
<g>
<text x="385" y="572">
Leader
</text>
</g>
<g>
<text x="385" y="588">
Schedule
</text>
</g>
<g>
<text x="425" y="92">
Neighborhood
</text>
</g>
<g>
<text x="425" y="108">
Validators
</text>
</g>
<g>
<text x="473" y="284">
Retransmit
</text>
</g>
<g>
<text x="473" y="300">
Stage
</text>
</g>
<g>
<text x="521" y="508">
Validator
</text>
</g>
<g>
<text x="521" y="524">
Stakes
</text>
</g>
<g>
<text x="569" y="140">
Peer
</text>
</g>
<g>
<text x="569" y="156">
List
</text>
</g>
<g>
<text x="617" y="28">
Gossip
</text>
</g>
<g>
<text x="617" y="44">
Service
</text>
</g>
<g>
<text x="633" y="284">
Replay
</text>
</g>
<g>
<text x="633" y="300">
Stage
</text>
</g>
<g>
<text x="633" y="556">
Bank
</text>
</g>
<g>
<text x="649" y="332">
PoH
</text>
</g>
<g>
<text x="649" y="348">
TX
</text>
</g>
<g>
<text x="657" y="140">
Votes
</text>
</g>
<g>
<text x="673" y="348">
Sig
</text>
</g>
<g>
<text x="681" y="332">
Verify
</text>
</g>
<g>
<text x="705" y="348">
Verify
</text>
</g>
<g>
<text x="841" y="284">
Storage
</text>
</g>
<g>
<text x="841" y="300">
Stage
</text>
</g>
</svg>