<svg class="bob" font-family="arial" font-size="14" height="720" width="968" xmlns="http://www.w3.org/2000/svg">
<defs>
<marker id="triangle" markerHeight="8" markerWidth="8" orient="auto" refX="4" refY="2" viewBox="0 0 8 4">
<polygon class="fg_fill" points="0,0 0,4 8,2 0,0"/>
</marker>
<marker id="clear_triangle" markerHeight="10" markerWidth="10" orient="auto" refX="1" refY="7" viewBox="0 0 20 14">
<polygon class="bg_fill" points="2,2 2,12 18,7 2,2"/>
</marker>
<marker id="circle" markerHeight="5" markerWidth="5" orient="auto" refX="10" refY="10" viewBox="0 0 20 20">
<circle class="fg_fill" cx="10" cy="10" r="8"/>
</marker>
<marker id="square" markerHeight="5" markerWidth="5" orient="auto" refX="10" refY="10" viewBox="0 0 20 20">
<rect class="fg_fill" height="20" width="20" x="0" y="0"/>
</marker>
<marker id="open_circle" markerHeight="10" markerWidth="10" orient="auto" refX="10" refY="10" viewBox="0 0 20 20">
<circle class="bg_fill" cx="10" cy="10" r="4"/>
</marker>
<marker id="big_open_circle" markerHeight="20" markerWidth="20" orient="auto" refX="20" refY="20" viewBox="0 0 40 40">
<circle class="bg_fill" cx="20" cy="20" r="6"/>
</marker>
</defs>
<style type="text/css">

rect.backdrop {
    fill: white;
}
text{
    fill: black;
}

circle {
    fill: none;
    stroke: black;
    stroke-width: 2;
}

line {
    stroke: black;
    stroke-width: 2;
    stroke-opacity: 1;
    fill-opacity: 1;
    stroke-linecap: round;
    stroke-linejoin: miter;
}

path {
    fill: none;
    stroke: black;
    stroke-width: 2;
    stroke-opacity: 1;
    fill-opacity: 1;
    stroke-linecap: round;
    stroke-linejoin: miter;
}

line.dashed {
    stroke-dasharray: 5;
}

.fg_fill {
    fill: black;
}


.bg_fill {
    fill: white;
    stroke: black;
    stroke-width: 2;
}

tspan.head{
    fill: none;
    stroke: none;
}
    
</style>
<rect class="backdrop" height="720" width="968" x="0" y="0"/>
<g>
<line x1="4" x2="4" y1="280" y2="344"/>
<line x1="4" x2="76" y1="280" y2="280"/>
<line x1="4" x2="76" y1="344" y2="344"/>
<line x1="76" x2="76" y1="280" y2="312"/>
<line x1="76" x2="76" y1="312" y2="344"/>
<line x1="76" x2="308" y1="312" y2="312"/>
<line x1="308" x2="308" y1="288" y2="312"/>
</g>
<g>
<line x1="44" x2="44" y1="472" y2="568"/>
<line x1="44" x2="116" y1="472" y2="472"/>
<line x1="44" x2="164" y1="568" y2="568"/>
<line x1="116" x2="164" y1="472" y2="472"/>
<line x1="164" x2="164" y1="472" y2="520"/>
<line x1="164" x2="164" y1="520" y2="568"/>
<line x1="164" x2="168" y1="520" y2="520"/>
</g>
<g>
<line marker-end="url(#triangle)" x1="84" x2="244" y1="248" y2="248"/>
</g>
<g>
<line marker-end="url(#triangle)" x1="116" x2="116" y1="344" y2="460"/>
<line marker-end="url(#triangle)" x1="116" x2="404" y1="344" y2="344"/>
</g>
<g>
<line marker-end="url(#triangle)" x1="176" x2="172" y1="520" y2="520"/>
<line x1="176" x2="300" y1="520" y2="520"/>
<line x1="300" x2="300" y1="456" y2="520"/>
<line x1="300" x2="364" y1="456" y2="456"/>
<line x1="300" x2="300" y1="520" y2="536"/>
<line x1="300" x2="372" y1="536" y2="536"/>
<line x1="364" x2="444" y1="456" y2="456"/>
<line x1="372" x2="444" y1="536" y2="536"/>
<line x1="444" x2="444" y1="456" y2="536"/>
</g>
<g>
<line x1="212" x2="212" y1="120" y2="240"/>
<line x1="212" x2="796" y1="120" y2="120"/>
<line x1="796" x2="796" y1="120" y2="240"/>
</g>
<g>
<line x1="212" x2="212" y1="256" y2="304"/>
</g>
<g>
<line x1="212" x2="212" y1="320" y2="336"/>
</g>
<g>
<line x1="212" x2="212" y1="352" y2="512"/>
</g>
<g>
<line x1="212" x2="212" y1="528" y2="584"/>
<line x1="212" x2="796" y1="584" y2="584"/>
<line x1="796" x2="796" y1="256" y2="584"/>
</g>
<g>
<line x1="236" x2="236" y1="184" y2="240"/>
<line x1="236" x2="548" y1="184" y2="184"/>
<line x1="548" x2="548" y1="184" y2="240"/>
</g>
<g>
<line x1="236" x2="236" y1="256" y2="304"/>
</g>
<g>
<line x1="236" x2="236" y1="320" y2="336"/>
</g>
<g>
<line x1="236" x2="236" y1="352" y2="408"/>
<line x1="236" x2="548" y1="408" y2="408"/>
<line x1="548" x2="548" y1="368" y2="408"/>
</g>
<g>
<line x1="252" x2="252" y1="232" y2="248"/>
<line x1="252" x2="388" y1="232" y2="232"/>
<line x1="252" x2="248" y1="248" y2="248"/>
<line x1="252" x2="252" y1="248" y2="264"/>
<line x1="252" x2="348" y1="264" y2="264"/>
<line x1="348" x2="364" y1="264" y2="264"/>
<line x1="364" x2="364" y1="264" y2="336"/>
<line x1="364" x2="388" y1="264" y2="264"/>
<line x1="388" x2="388" y1="232" y2="248"/>
<line x1="388" x2="388" y1="248" y2="264"/>
<line marker-end="url(#triangle)" x1="388" x2="628" y1="248" y2="248"/>
</g>
<g>
<line marker-end="url(#triangle)" x1="308" x2="308" y1="288" y2="276"/>
</g>
<g>
<line x1="308" x2="308" y1="648" y2="712"/>
<line x1="308" x2="372" y1="648" y2="648"/>
<line x1="308" x2="388" y1="712" y2="712"/>
<line x1="372" x2="372" y1="592" y2="648"/>
<line x1="372" x2="388" y1="648" y2="648"/>
<line x1="388" x2="388" y1="648" y2="712"/>
</g>
<g>
<line x1="364" x2="364" y1="352" y2="400"/>
</g>
<g>
<line marker-end="url(#triangle)" x1="364" x2="364" y1="416" y2="444"/>
</g>
<g>
<line marker-end="url(#triangle)" x1="372" x2="372" y1="560" y2="548"/>
<line x1="372" x2="372" y1="560" y2="576"/>
</g>
<g>
<line x1="412" x2="412" y1="8" y2="72"/>
<line x1="412" x2="516" y1="8" y2="8"/>
<line x1="412" x2="516" y1="72" y2="72"/>
<line x1="516" x2="516" y1="8" y2="72"/>
</g>
<g>
<line x1="412" x2="412" y1="312" y2="344"/>
<line x1="412" x2="468" y1="312" y2="312"/>
<line x1="412" x2="408" y1="344" y2="344"/>
<line x1="412" x2="412" y1="344" y2="376"/>
<line x1="412" x2="508" y1="376" y2="376"/>
<line x1="468" x2="468" y1="256" y2="312"/>
<line x1="468" x2="508" y1="312" y2="312"/>
<line x1="508" x2="508" y1="312" y2="360"/>
<line x1="508" x2="508" y1="360" y2="376"/>
<line x1="508" x2="512" y1="360" y2="360"/>
</g>
<g>
<line x1="468" x2="468" y1="80" y2="112"/>
</g>
<g>
<line x1="468" x2="468" y1="128" y2="176"/>
</g>
<g>
<line x1="468" x2="468" y1="192" y2="240"/>
</g>
<g>
<line marker-end="url(#triangle)" x1="520" x2="516" y1="360" y2="360"/>
<line x1="520" x2="700" y1="360" y2="360"/>
<line x1="700" x2="700" y1="312" y2="360"/>
<line x1="700" x2="764" y1="312" y2="312"/>
<line x1="764" x2="764" y1="248" y2="312"/>
<line marker-end="url(#triangle)" x1="764" x2="876" y1="248" y2="248"/>
</g>
<g>
<line x1="548" x2="548" y1="256" y2="352"/>
</g>
<g>
<line x1="636" x2="636" y1="216" y2="248"/>
<line x1="636" x2="764" y1="216" y2="216"/>
<line x1="636" x2="632" y1="248" y2="248"/>
<line x1="636" x2="636" y1="248" y2="312"/>
<line x1="636" x2="700" y1="312" y2="312"/>
<line x1="764" x2="764" y1="216" y2="248"/>
</g>
<g>
<line x1="884" x2="884" y1="200" y2="248"/>
<line x1="884" x2="964" y1="200" y2="200"/>
<line x1="884" x2="880" y1="248" y2="248"/>
<line x1="884" x2="884" y1="248" y2="280"/>
<line x1="884" x2="964" y1="280" y2="280"/>
<line x1="964" x2="964" y1="200" y2="280"/>
</g>
<g>
<text x="17" y="316">
Bank
</text>
</g>
<g>
<text x="57" y="508">
Peer
</text>
</g>
<g>
<text x="57" y="524">
Validators
</text>
</g>
<g>
<text x="89" y="236">
Packets
</text>
</g>
<g>
<text x="89" y="300">
Leader
</text>
</g>
<g>
<text x="145" y="300">
Schedule
</text>
</g>
<g>
<text x="233" y="156">
Retransmit
</text>
</g>
<g>
<text x="241" y="204">
Window
</text>
</g>
<g>
<text x="265" y="252">
Deshredder
</text>
</g>
<g>
<text x="281" y="620">
ContactInfo
</text>
</g>
<g>
<text x="297" y="204">
Service
</text>
</g>
<g>
<text x="313" y="492">
Retransmitter
</text>
</g>
<g>
<text x="321" y="156">
Stage
</text>
</g>
<g>
<text x="321" y="668">
Gossip
</text>
</g>
<g>
<text x="321" y="684">
Service
</text>
</g>
<g>
<text x="369" y="428">
Shreds
</text>
</g>
<g>
<text x="425" y="332">
Repair
</text>
</g>
<g>
<text x="425" y="348">
Service
</text>
</g>
<g>
<text x="433" y="28">
Gossip
</text>
</g>
<g>
<text x="433" y="44">
Service
</text>
</g>
<g>
<text x="473" y="92">
ContactInfo
</text>
</g>
<g>
<text x="561" y="348">
Incomplete
</text>
</g>
<g>
<text x="561" y="380">
Slots
</text>
</g>
<g>
<text x="569" y="236">
Shreds
</text>
</g>
<g>
<text x="649" y="252">
Blockstore
</text>
</g>
<g>
<text x="809" y="236">
Entries
</text>
</g>
<g>
<text x="897" y="236">
Replay
</text>
</g>
<g>
<text x="897" y="252">
Stage
</text>
</g>
</svg>